<?xml version="1.0" standalone="no"?>
<!DOCTYPE svg PUBLIC "-//W3C//DTD SVG 20010904//EN"
 "http://www.w3.org/TR/2001/REC-SVG-20010904/DTD/svg10.dtd">
<svg version="1.0" xmlns="http://www.w3.org/2000/svg"
 width="655.000000pt" height="342.000000pt" viewBox="0 0 655.000000 342.000000"
 preserveAspectRatio="xMidYMid meet">

<g transform="translate(0.000000,342.000000) scale(0.100000,-0.100000)"
fill="#000000" stroke="none">
<path d="M0 1710 l0 -1710 3275 0 3275 0 0 1710 0 1710 -3275 0 -3275 0 0
-1710z m3180 0 l0 -1500 -1500 0 -1500 0 0 1500 0 1500 1500 0 1500 0 0 -1500z
m3200 0 l0 -1500 -1500 0 -1500 0 0 1500 0 1500 1500 0 1500 0 0 -1500z"/>
<path d="M200 1710 l0 -1480 1480 0 1480 0 0 1480 0 1480 -1480 0 -1480 0 0
-1480z m647 1075 c94 -47 145 -146 147 -280 1 -175 -80 -285 -231 -310 -54 -9
-138 15 -175 50 -15 14 -30 25 -33 25 -3 0 -5 -61 -5 -135 l0 -136 -82 3 -83
3 0 395 0 395 80 0 80 0 5 -29 c5 -27 6 -28 19 -12 50 61 188 76 278 31z
m1236 11 c18 -7 45 -27 59 -44 l26 -31 23 26 c40 42 92 63 157 63 72 0 118
-14 156 -49 54 -50 59 -75 64 -323 l4 -228 -85 0 -85 0 -4 209 c-3 206 -3 210
-27 235 -19 21 -34 26 -71 26 -57 0 -86 -20 -100 -68 -5 -20 -10 -119 -10
-219 l0 -183 -85 0 -85 0 0 210 c0 211 0 211 -25 235 -45 46 -133 29 -164 -32
-7 -14 -11 -93 -11 -217 l0 -196 -85 0 -85 0 0 295 0 296 78 -3 77 -3 5 -34 5
-33 20 22 c48 54 173 78 248 46z m-523 -59 l0 -63 -150 -164 c-82 -91 -149
-168 -150 -172 0 -5 72 -8 160 -8 l160 0 0 -60 0 -60 -275 0 -275 0 0 63 1 62
150 165 150 165 -138 5 -138 5 -3 49 c-2 27 -1 55 2 62 4 11 52 14 256 14
l250 0 0 -63z"/>
<path d="M635 2680 c-56 -23 -85 -83 -85 -177 0 -125 57 -192 154 -181 83 10
120 64 120 178 1 58 -4 84 -21 116 -33 61 -107 90 -168 64z"/>
<path d="M3400 1710 l0 -1480 1480 0 1480 0 0 1480 0 1480 -1480 0 -1480 0 0
-1480z m2130 1192 c306 -81 497 -274 555 -561 21 -104 16 -333 -9 -426 -61
-221 -222 -392 -444 -471 -39 -14 -66 -29 -64 -36 3 -10 455 -798 514 -895
l20 -33 -369 0 -368 0 -261 453 -262 452 -276 3 -276 2 0 -460 0 -460 -320 0
-320 0 0 775 0 775 853 0 c809 0 854 1 893 19 31 14 45 28 57 60 10 23 17 50
17 62 0 38 -29 89 -62 109 -32 20 -48 20 -895 20 l-863 0 0 320 0 321 898 -4
c893 -3 897 -3 982 -25z"/>
</g>
</svg>
